# xmcd CD database file
#
# Track frame offsets:
#	150
#	17906
#	34898
#	48368
#	63572
#	84324
#	106174
#	120076
#	153817
#	180849
#	199245
#	212659
#	225917
#	242528
#	260379
#	280565
#
# Disc length: 3880 seconds
#
# Revision: 0
# Processed by: cddbd v1.5.1PL0 Copyright (c) Steve Scherf et al.
# Submitted via: Feurio! 1.67 - http://www.feurio.com
#
DISCID=bc0f2610
DTITLE=Various Artist - New Orleans Festival, Innsbruck 2002
DYEAR=2002
DGENRE=Blues
TTITLE0=Marva Wright &The BMW's - (Mama) He Treats Your Daughter Mean
TTITLE1=Marva Wright &The BMW's - Bluesiana Mama
TTITLE2=Chucky C. and Clearly Blue - I Don't Believe
TTITLE3=Dixielanders Hall - Mame
TTITLE4=Oscar Klein and Katie Kern - Going To Chicago
TTITLE5=George Nussbaumer - Have A Little Faith In Me
TTITLE6=Die Templesänger - Footloose
TTITLE7=Chucky C. and Clearly Blue - Stormy Monday
TTITLE8=The New Bopquartet - Funky Blues
TTITLE9=Dixielanders Hall - 12th Street Rag
TTITLE10=George Nussbaumer - It's Allright
TTITLE11=Oscar Klein and Katie Kern - Pick That Thing
TTITLE12=Frajo Köhle - Farther On Up The Road
TTITLE13=Gail Anderson and The Incredible Southern Blues Band - Falling Back In 
TTITLE13=Love With You
TTITLE14=Alpendollar - Sunshine
TTITLE15=Die Templesänger - Didn't My Lord Deliver Daniel
EXTD=Eine Produktion des Stadtmarketing Innsbruck anlässlich des 
EXTD=New-Orleans-Festivals vom 31.Juli  bis 4. August 2002 unter Mitwirkung 
EXTD=aller auf dieser Kompilation vertretenen Künstler und 
EXTD=Bands.\n\nZusammenstellung: Markus Lindner\nTontechnische Betreuung: Karl 
EXTD=Ecke, Fly-By-night-Tonstudio
EXTT0=
EXTT1=
EXTT2=
EXTT3=
EXTT4=
EXTT5=
EXTT6=
EXTT7=
EXTT8=
EXTT9=
EXTT10=
EXTT11=
EXTT12=
EXTT13=
EXTT14=
EXTT15=
PLAYORDER=
